<svg
	version="1.0"
	xmlns="http://www.w3.org/2000/svg"
	width="105.000000pt"
	height="111.000000pt"
	viewBox="0 0 105.000000 111.000000"
	preserveAspectRatio="xMidYMid meet"
>  <g
		transform="translate(0.000000,111.000000) scale(0.100000,-0.100000)"
		fill="#444444"
		stroke="none"
	> <path
			d="M375 895 c-76 -22 -118 -47 -169 -98 -57 -57 -87 -113 -106 -194 -14 -64 1 -175 33 -238 25 -48 141 -165 164 -165 9 0 25 -8 35 -17 28 -25 248 -25 276 0 10 9 26 17 35 17 23 0 139 117 164 165 11 22 26 72 33 111 21 119 -15 230 -106 321 -95 95 -238 135 -359 98z m222 -90 c60 -31 71 -40 109 -90 108 -141 76 -328 -73 -433 -18 -12 -36 -22 -41 -22 -5 0 -23 -7 -41 -16 -37 -18 -125 -15 -182 7 -119 47 -199 161 -199 284 0 71 16 116 65 180 61 82 124 113 232 114 68 1 89 -3 130 -24z"
		/> <path
			d="M436 768 c-3 -13 -6 -73 -6 -134 l0 -112 59 -61 c32 -33 63 -61 69 -61 27 0 42 14 42 40 0 21 -11 37 -45 64 l-45 37 0 102 c0 131 -5 147 -40 147 -20 0 -29 -6 -34 -22z"
		/> </g> </svg>
