<svg
	version="1.0"
	xmlns="http://www.w3.org/2000/svg"
	width="162.000000pt"
	height="144.000000pt"
	viewBox="0 0 162.000000 144.000000"
	preserveAspectRatio="xMidYMid meet"
>  <g
		transform="translate(0.000000,144.000000) scale(0.100000,-0.100000)"
		fill="#000000"
		stroke="none"
	> <path
			d="M308 1169 c-10 -10 -18 -25 -18 -32 0 -7 -7 -22 -15 -33 -32 -42 -7 -104 43 -104 31 0 52 27 52 66 0 32 2 34 33 34 33 0 67 24 67 47 0 43 -127 61 -162 22z"
		/> <path
			d="M537 1183 c-11 -11 -8 -58 5 -71 7 -7 31 -12 55 -12 48 0 68 22 57 65 -6 23 -11 25 -58 25 -29 0 -56 -3 -59 -7z"
		/> <path
			d="M736 1165 c-10 -41 9 -65 52 -65 51 0 75 18 70 55 -3 29 -5 30 -59 33 -53 3 -57 1 -63 -23z"
		/> <path
			d="M938 1165 c-19 -41 7 -58 92 -61 67 -3 70 -2 70 20 0 34 -50 66 -105 66 -39 0 -47 -4 -57 -25z"
		/> <path
			d="M451 1003 l-29 -36 3 -201 c2 -110 8 -262 12 -336 l8 -134 35 -9 c73 -18 91 -19 105 -7 11 9 19 8 37 -4 33 -23 499 -24 518 -1 7 8 20 15 30 15 9 0 25 9 35 20 16 18 17 41 13 327 -6 323 -9 348 -53 385 -18 15 -54 17 -352 17 l-332 0 -30 -36z m320 -66 c14 -24 22 -335 12 -450 -7 -89 -29 -106 -118 -98 -33 3 -77 2 -97 -3 -69 -18 -69 -17 -63 266 4 143 11 260 17 273 12 26 22 29 155 32 76 3 83 1 94 -20z m347 -2 c18 -22 20 -42 21 -167 1 -185 6 -178 -150 -178 -82 0 -120 4 -125 12 -5 7 -7 82 -6 166 1 198 -3 192 138 192 98 0 103 -1 122 -25z m-43 -465 c54 -50 -12 -110 -119 -110 -78 0 -95 14 -76 62 19 49 25 52 93 59 34 3 66 7 71 7 6 1 19 -7 31 -18z"
		/> <path d="M282 927 c-43 -45 -18 -127 38 -127 49 0 68 73 34 125 -20 31 -44 32 -72 2z" /> <path
			d="M276 718 c-23 -33 -20 -81 7 -106 13 -12 30 -22 39 -22 37 0 62 86 38 131 -15 27 -64 25 -84 -3z"
		/> <path
			d="M290 527 c-53 -27 -25 -147 35 -147 30 0 33 5 41 75 6 50 4 60 -11 71 -23 17 -33 17 -65 1z"
		/> </g> </svg>
