<svg
	version="1.0"
	xmlns="http://www.w3.org/2000/svg"
	width="102.000000pt"
	height="87.000000pt"
	viewBox="0 0 102.000000 87.000000"
	preserveAspectRatio="xMidYMid meet"
>  <g
		transform="translate(0.000000,87.000000) scale(0.100000,-0.100000)"
		fill="#000000"
		stroke="none"
	> <path
			d="M490 636 c-11 -26 -20 -53 -20 -59 0 -25 -37 -128 -46 -129 -13 0 -43 81 -43 118 -2 65 -47 72 -76 12 -14 -28 -28 -44 -43 -46 -12 -2 -29 -13 -37 -25 -13 -18 -13 -23 -1 -35 20 -20 82 -7 97 20 6 11 14 16 19 12 12 -14 40 -105 40 -131 0 -28 34 -65 53 -57 8 3 20 31 27 62 19 81 46 153 56 154 12 0 43 -80 43 -112 1 -15 6 -31 13 -38 24 -24 46 -13 65 33 12 30 24 45 36 45 10 0 27 5 37 10 17 9 18 14 8 35 -15 34 -60 34 -86 0 -11 -14 -24 -25 -29 -25 -10 0 -43 105 -43 136 0 11 -11 31 -25 44 l-24 23 -21 -47z"
		/> </g> </svg>
