<svg
	version="1.0"
	xmlns="http://www.w3.org/2000/svg"
	width="69.000000pt"
	height="75.000000pt"
	viewBox="0 0 69.000000 75.000000"
	preserveAspectRatio="xMidYMid meet"
>  <g
		transform="translate(0.000000,75.000000) scale(0.100000,-0.100000)"
		fill="#3d85c6"
		stroke="none"
	> <path
			d="M108 638 c-18 -18 -19 -33 -17 -204 3 -252 -15 -234 228 -234 166 0 190 2 203 18 13 13 18 57 23 208 10 252 29 232 -225 232 -177 0 -194 -2 -212 -20z m184 -161 c3 -71 9 -131 12 -135 3 -3 -1 -14 -11 -24 -20 -22 -99 -25 -129 -4 -20 14 -21 22 -16 148 3 82 9 136 16 141 6 4 36 6 66 5 l55 -3 7 -128z m184 125 c7 -4 13 -45 15 -97 l4 -90 -72 -3 c-54 -2 -73 0 -74 10 -2 41 3 173 7 180 6 10 105 10 120 0z"
		/> </g> </svg>
