<svg
	version="1.0"
	xmlns="http://www.w3.org/2000/svg"
	width="105.000000pt"
	height="90.000000pt"
	viewBox="0 0 105.000000 90.000000"
	preserveAspectRatio="xMidYMid meet"
>  <g
		transform="translate(0.000000,90.000000) scale(0.100000,-0.100000)"
		fill="#999999"
		stroke="none"
	> <path
			d="M512 707 c-9 -10 -9 -34 -3 -88 13 -98 10 -101 -93 -93 -67 6 -84 4 -95 -9 -7 -9 -11 -24 -9 -34 3 -16 14 -18 100 -15 52 2 98 0 101 -5 3 -5 1 -44 -4 -87 -10 -90 -1 -116 37 -116 l26 0 -3 103 -4 102 97 0 c108 0 127 8 102 44 -16 22 -20 23 -105 16 -71 -5 -89 -4 -90 7 -1 7 -2 51 -3 98 -1 78 -3 85 -22 88 -11 2 -26 -3 -32 -11z"
		/> </g> </svg>
